<svg xmlns="http://www.w3.org/2000/svg" width="13" height="13" fill="none" viewBox="0 0 13 13"><path fill="#2e2f42" d="m11.7263 8.86511-1.83819-.20986c-.44144-.05066-.87565.10131-1.18683.4125L7.36971 10.3993C5.3217 9.35722 3.64276 7.68551 2.60067 5.63025l1.3388-1.33881c.31118-.31119.46316-.74539.4125-1.18684L4.1421 1.28092C4.05526.549999 3.44013 0 2.70198 0H1.45002C.632259 0-.0479991.680262.00265842 1.49802.386208 7.67827 5.32894 12.6138 11.5019 12.9973c.8178.0507 1.498-.6296 1.498-1.4473v-1.252c.0073-.73091-.5427-1.34604-1.2736-1.43289"/></svg>