<svg xmlns="http://www.w3.org/2000/svg" width="10" height="8" fill="none" viewBox="0 0 10 8"><path fill="#f4f4fd" d="M8.44558.255056c.1728-.165403.40276-.25684448.64135-.25502949.23858.00181499.46714.09674479.63743.26475749.1703.168013.26901.395968.27532.635765.00632.239791-.08029.472681-.24152.649501L4.86357 7.70436c-.08417.09115-.18575.16429-.29867.21506-.11292.05076-.23487.07812-.35854.08042-.12368.0023-.24655-.02049-.36126-.06702-.11472-.04653-.21892-.11584-.30638-.20379L.292827 4.46564c-.090392-.08468-.162894-.1868-.2131795-.30027-.0502854-.11346-.07732471-.23595-.07950432-.36015s.02054512-.24757.06681812-.36274C.113234 3.3273.182108 3.22267.269473 3.13483c.087365-.08783.191432-.15708.305992-.2036.114561-.04652.237269-.06937.360802-.06718s.245363.02938.358223.07993c.11285.05056.21443.12345.29866.21433l2.56874 2.58136L8.42227.28219c.00767-.009496.01586-.018555.02453-.027134z"/></svg>